<svg xmlns="http://www.w3.org/2000/svg" width="2480" height="3508" viewBox="0 0 2480 3508" role="img" aria-labelledby="title desc">
  <title id="title">Conecta Vagas DF</title>
  <desc id="desc">Página de identidade visual da plataforma Conecta Vagas DF.</desc>
  <rect width="2480" height="3508" fill="#fff"/>
  <rect width="2480" height="34" fill="#0a3a8c"/>
  <rect y="34" width="2480" height="12" fill="#f2b705"/>
  <path d="M0 46h2480v470c-340 170-680 255-1020 255S680 686 0 516z" fill="#f5f8fd"/>
  <circle cx="1240" cy="1150" r="694" fill="#edf3fc"/>
  <circle cx="1240" cy="1150" r="526" fill="#fff" stroke="#f2b705" stroke-width="24"/>
  <g transform="translate(808 716) scale(36)" fill="#0a3a8c">
    <path fill-rule="evenodd" d="M12 1.4c-4.4 0-7.9 3.5-7.9 7.8 0 5.7 7.9 13.4 7.9 13.4s7.9-7.7 7.9-13.4c0-4.3-3.5-7.8-7.9-7.8zM8.3 8.1h7.4c.5 0 .9.4.9.9v4.1c0 .5-.4.9-.9.9H8.3c-.5 0-.9-.4-.9-.9V9c0-.5.4-.9.9-.9zm-.9 2.5v.8h9.2v-.8zM10 8.1V6.9c0-.4.3-.7.7-.7h2.6c.4 0 .7.3.7.7v1.2h-.9V7.1h-2.2v1z"/>
  </g>
  <text x="1240" y="2035" fill="#0a3a8c" font-family="Arial, Helvetica, sans-serif" font-size="174" font-weight="700" letter-spacing="-3" text-anchor="middle">Conecta Vagas</text>
  <rect x="1030" y="2110" width="420" height="188" rx="24" fill="#f2b705"/>
  <text x="1240" y="2244" fill="#0a3a8c" font-family="Arial, Helvetica, sans-serif" font-size="126" font-weight="700" text-anchor="middle">DF</text>
  <text x="1240" y="2440" fill="#5b6677" font-family="Arial, Helvetica, sans-serif" font-size="67" text-anchor="middle">Conectando talentos às oportunidades</text>
  <path d="M570 2760h1340" stroke="#e4ebf5" stroke-width="4"/>
  <circle cx="1240" cy="2760" r="12" fill="#f2b705"/>
  <path d="M0 3448h2480v60H0z" fill="#0a3a8c"/>
  <path d="M0 3436h2480v12H0z" fill="#f2b705"/>
</svg>
