<svg xmlns="http://www.w3.org/2000/svg" xmlns:xlink="http://www.w3.org/1999/xlink" version="1.1" data-diagram-type="SEQUENCE" style="width:831px;height:490px;background:#FFFFFF;" width="831px" height="490px" viewBox="0 0 831 490" zoomAndPan="magnify" preserveAspectRatio="none" contentStyleType="text/css"><?plantuml 1.2026.8?><defs/><g font-family="sans-serif" lengthAdjust="spacing"><rect x="10" y="15" width="810.593" height="459.633" fill="#FFF" style="stroke:#181818;stroke-width:1.5;"/><path d="M172.537,15 L172.537,24.099 L162.537,34.099 L10,34.099" style="stroke:#181818;stroke-width:1.5;" fill="none"/><text x="13" y="29.132" fill="#000" font-size="14" textLength="152.537" font-family="Arial">sd Candidatar-se à vaga</text><g><title>Candidato</title><rect x="44.575" y="119.748" width="8" height="337.787" fill="#000" fill-opacity="0"/><line x1="48.075" y1="119.748" x2="48.075" y2="457.535" style="stroke:#000;stroke-width:0.5;stroke-dasharray:5,5;"/></g><g><title>.TelaVaga</title><rect x="215.752" y="119.748" width="8" height="337.787" fill="#000" fill-opacity="0"/><line x1="219.252" y1="119.748" x2="219.252" y2="457.535" style="stroke:#000;stroke-width:0.5;stroke-dasharray:5,5;"/></g><g><title></title><rect x="214.252" y="146.396" width="10" height="133.245" fill="#FFF" style="stroke:#181818;stroke-width:1;"/></g><g><title></title><rect x="214.252" y="306.29" width="10" height="133.245" fill="#FFF" style="stroke:#181818;stroke-width:1;"/></g><g><title>.CandidaturaController</title><rect x="448.674" y="119.748" width="8" height="337.787" fill="#000" fill-opacity="0"/><line x1="452.174" y1="119.748" x2="452.174" y2="457.535" style="stroke:#000;stroke-width:0.5;stroke-dasharray:5,5;"/></g><g><title></title><rect x="447.174" y="173.045" width="10" height="79.947" fill="#FFF" style="stroke:#181818;stroke-width:1;"/></g><g><title></title><rect x="447.174" y="332.939" width="10" height="79.947" fill="#FFF" style="stroke:#181818;stroke-width:1;"/></g><g><title>.AssinaturaDAO</title><rect x="660.838" y="119.748" width="8" height="337.787" fill="#000" fill-opacity="0"/><line x1="664.338" y1="119.748" x2="664.338" y2="457.535" style="stroke:#000;stroke-width:0.5;stroke-dasharray:5,5;"/></g><g><title></title><rect x="659.338" y="199.694" width="10" height="26.649" fill="#FFF" style="stroke:#181818;stroke-width:1;"/></g><g><title>.CandidaturaDAO</title><rect x="759.681" y="119.748" width="8" height="337.787" fill="#000" fill-opacity="0"/><line x1="763.181" y1="119.748" x2="763.181" y2="457.535" style="stroke:#000;stroke-width:0.5;stroke-dasharray:5,5;"/></g><g><title></title><rect x="758.181" y="359.588" width="10" height="26.649" fill="#FFF" style="stroke:#181818;stroke-width:1;"/></g><text x="20" y="117.417" fill="#000" font-size="11" textLength="50.15" font-family="Arial">Candidato</text><ellipse cx="48.075" cy="55.599" rx="8" ry="8" fill="#FFF" style="stroke:#000;stroke-width:0.5;"/><path d="M48.075,63.599 L48.075,90.599 M35.075,71.599 L61.075,71.599 M48.075,90.599 L35.075,105.599 M48.075,90.599 L61.075,105.599" style="stroke:#000;stroke-width:0.5;" fill="none"/><text x="191.179" y="117.417" fill="#000" font-size="11" textLength="50.145" font-family="Arial">:TelaVaga</text><path d="M198.752,79.099 L198.752,103.099 M198.752,91.099 L215.752,91.099" style="stroke:#000;stroke-width:0.5;" fill="none"/><ellipse cx="227.752" cy="91.099" rx="12" ry="12" fill="#FFFFE0" style="stroke:#000;stroke-width:0.5;"/><text x="393.838" y="117.417" fill="#000" font-size="11" textLength="110.671" font-family="Arial">:CandidaturaController</text><ellipse cx="452.174" cy="91.099" rx="12" ry="12" fill="#FFFFE0" style="stroke:#000;stroke-width:0.5;"/><polygon points="448.174,79.099,454.174,74.099,452.174,79.099,454.174,84.099,448.174,79.099" fill="#000" style="stroke:#000;stroke-width:1;stroke-linejoin:miter;stroke-miterlimit:10;"/><text x="621.906" y="117.417" fill="#000" font-size="11" textLength="78.864" font-family="Arial">:AssinaturaDAO</text><ellipse cx="664.338" cy="91.099" rx="12" ry="12" fill="#FFFFE0" style="stroke:#000;stroke-width:0.5;"/><line x1="652.338" y1="105.099" x2="676.338" y2="105.099" style="stroke:#000;stroke-width:0.5;"/><text x="716.77" y="117.417" fill="#000" font-size="11" textLength="86.824" font-family="Arial">:CandidaturaDAO</text><ellipse cx="763.181" cy="91.099" rx="12" ry="12" fill="#FFFFE0" style="stroke:#000;stroke-width:0.5;"/><line x1="751.181" y1="105.099" x2="775.181" y2="105.099" style="stroke:#000;stroke-width:0.5;"/><polygon points="202.252,142.396,212.252,146.396,202.252,150.396,206.252,146.396" fill="#000" style="stroke:#000;stroke-width:1;stroke-linejoin:miter;stroke-miterlimit:10;"/><line x1="48.075" y1="146.396" x2="208.252" y2="146.396" style="stroke:#000;stroke-width:0.8;"/><text x="55.075" y="142.065" fill="#000" font-size="11" textLength="9.174" font-family="Arial">1:</text><text x="68.249" y="142.065" fill="#000" font-size="11" textLength="123.965" font-family="Arial">clicar em "Candidatar-se"</text><polygon points="435.174,169.045,445.174,173.045,435.174,177.045,439.174,173.045" fill="#000" style="stroke:#000;stroke-width:1;stroke-linejoin:miter;stroke-miterlimit:10;"/><line x1="224.252" y1="173.045" x2="441.174" y2="173.045" style="stroke:#000;stroke-width:0.8;"/><text x="231.252" y="168.714" fill="#000" font-size="11" textLength="9.174" font-family="Arial">2:</text><text x="244.426" y="168.714" fill="#000" font-size="11" textLength="91.722" font-family="Arial">candidatar(vagaId)</text><polygon points="647.338,195.694,657.338,199.694,647.338,203.694,651.338,199.694" fill="#000" style="stroke:#000;stroke-width:1;stroke-linejoin:miter;stroke-miterlimit:10;"/><line x1="457.174" y1="199.694" x2="653.338" y2="199.694" style="stroke:#000;stroke-width:0.8;"/><text x="464.174" y="195.363" fill="#000" font-size="11" textLength="9.174" font-family="Arial">3:</text><text x="477.348" y="195.363" fill="#000" font-size="11" textLength="169.99" font-family="Arial">podeCandidatar(usuarioId, perfilId)</text><polygon points="468.174,222.343,458.174,226.343,468.174,230.343,464.174,226.343" fill="#000" style="stroke:#000;stroke-width:1;stroke-linejoin:miter;stroke-miterlimit:10;"/><line x1="462.174" y1="226.343" x2="658.338" y2="226.343" style="stroke:#000;stroke-width:0.8;stroke-dasharray:2,2;"/><text x="474.174" y="222.012" fill="#000" font-size="11" textLength="9.174" font-family="Arial">4:</text><text x="487.348" y="222.012" fill="#000" font-size="11" textLength="80.078" font-family="Arial">permitido / limite</text><polygon points="235.252,248.992,225.252,252.992,235.252,256.992,231.252,252.992" fill="#000" style="stroke:#000;stroke-width:1;stroke-linejoin:miter;stroke-miterlimit:10;"/><line x1="229.252" y1="252.992" x2="446.174" y2="252.992" style="stroke:#000;stroke-width:0.8;stroke-dasharray:2,2;"/><text x="241.252" y="248.661" fill="#000" font-size="11" textLength="9.174" font-family="Arial">5:</text><text x="254.426" y="248.661" fill="#000" font-size="11" textLength="138.456" font-family="Arial">formulário (currículo + carta)</text><polygon points="59.075,275.641,49.075,279.641,59.075,283.641,55.075,279.641" fill="#000" style="stroke:#000;stroke-width:1;stroke-linejoin:miter;stroke-miterlimit:10;"/><line x1="53.075" y1="279.641" x2="213.252" y2="279.641" style="stroke:#000;stroke-width:0.8;stroke-dasharray:2,2;"/><text x="65.075" y="275.31" fill="#000" font-size="11" textLength="9.174" font-family="Arial">6:</text><text x="78.249" y="275.31" fill="#000" font-size="11" textLength="78.246" font-family="Arial">exibir formulário</text><polygon points="202.252,302.29,212.252,306.29,202.252,310.29,206.252,306.29" fill="#000" style="stroke:#000;stroke-width:1;stroke-linejoin:miter;stroke-miterlimit:10;"/><line x1="48.075" y1="306.29" x2="208.252" y2="306.29" style="stroke:#000;stroke-width:0.8;"/><text x="55.075" y="301.959" fill="#000" font-size="11" textLength="9.174" font-family="Arial">7:</text><text x="68.249" y="301.959" fill="#000" font-size="11" textLength="129.003" font-family="Arial">escolher currículo e enviar</text><polygon points="435.174,328.939,445.174,332.939,435.174,336.939,439.174,332.939" fill="#000" style="stroke:#000;stroke-width:1;stroke-linejoin:miter;stroke-miterlimit:10;"/><line x1="224.252" y1="332.939" x2="441.174" y2="332.939" style="stroke:#000;stroke-width:0.8;"/><text x="231.252" y="328.608" fill="#000" font-size="11" textLength="9.174" font-family="Arial">8:</text><text x="244.426" y="328.608" fill="#000" font-size="11" textLength="179.142" font-family="Arial">candidatar(vagaId, curriculoId, carta)</text><polygon points="746.181,355.588,756.181,359.588,746.181,363.588,750.181,359.588" fill="#000" style="stroke:#000;stroke-width:1;stroke-linejoin:miter;stroke-miterlimit:10;"/><line x1="457.174" y1="359.588" x2="752.181" y2="359.588" style="stroke:#000;stroke-width:0.8;"/><text x="464.174" y="355.257" fill="#000" font-size="11" textLength="9.174" font-family="Arial">9:</text><text x="477.348" y="355.257" fill="#000" font-size="11" textLength="223.121" font-family="Arial">enviarComLimite(perfil, vaga, cv, carta, limite)</text><polygon points="468.174,382.237,458.174,386.237,468.174,390.237,464.174,386.237" fill="#000" style="stroke:#000;stroke-width:1;stroke-linejoin:miter;stroke-miterlimit:10;"/><line x1="462.174" y1="386.237" x2="757.181" y2="386.237" style="stroke:#000;stroke-width:0.8;stroke-dasharray:2,2;"/><text x="474.174" y="381.906" fill="#000" font-size="11" textLength="15.292" font-family="Arial">10:</text><text x="493.466" y="381.906" fill="#000" font-size="11" textLength="19.427" font-family="Arial">"ok"</text><polygon points="235.252,408.886,225.252,412.886,235.252,416.886,231.252,412.886" fill="#000" style="stroke:#000;stroke-width:1;stroke-linejoin:miter;stroke-miterlimit:10;"/><line x1="229.252" y1="412.886" x2="446.174" y2="412.886" style="stroke:#000;stroke-width:0.8;stroke-dasharray:2,2;"/><text x="241.252" y="408.555" fill="#000" font-size="11" textLength="15.292" font-family="Arial">11:</text><text x="260.543" y="408.555" fill="#000" font-size="11" textLength="179.631" font-family="Arial">"Candidatura enviada com sucesso!"</text><polygon points="59.075,435.535,49.075,439.535,59.075,443.535,55.075,439.535" fill="#000" style="stroke:#000;stroke-width:1;stroke-linejoin:miter;stroke-miterlimit:10;"/><line x1="53.075" y1="439.535" x2="213.252" y2="439.535" style="stroke:#000;stroke-width:0.8;stroke-dasharray:2,2;"/><text x="65.075" y="435.204" fill="#000" font-size="11" textLength="15.292" font-family="Arial">12:</text><text x="84.366" y="435.204" fill="#000" font-size="11" textLength="83.757" font-family="Arial">exibir mensagem</text><?plantuml-src VP8xRXin48PxdcBCIeAqJceL0OHLOo102WdfHoHb3qnoZ24fsBT93f1Jw68XkRAz0e9qo_qVEzyExoWQNwm3bp9vlgSIl0f8yIGO72GB8qPB5ZFAa1nSVi4P7r5XoHnBE3e1_NMZrHFLZXDpFlAhKcWooqUI0HDirP5Bj2Xle3S7v_5dhT5DEIZ3CGlxAhn7Yk0ulVHEkcjKBcRABRrDYMBtxBO_khZ_56SDx-fERM7u1WTOhM03nfD10HT0tw1fTMYkyUhwa1QDzy4krTZa_II_i7MVwKL91ONumQxXnSc9VFFlOUXzmz02JW9biWnVm5DzTAslJzNr4qie_lAxji32597B7rCymwfE8XcNRRZgtavkzqf7adde1j4bm_wfhcPML3SSpuJoVyfrZr1BzCFqxKw-ktRtbf73zqwnc7ZN_LRKmFaQMbyfbset_msQd_Kjk9ujR2gt28O3f69SIdod_uaUN4puwC9V?></g></svg>