<svg xmlns="http://www.w3.org/2000/svg" xmlns:xlink="http://www.w3.org/1999/xlink" version="1.1" data-diagram-type="SEQUENCE" style="width:818px;height:490px;background:#FFFFFF;" width="818px" height="490px" viewBox="0 0 818 490" zoomAndPan="magnify" preserveAspectRatio="none" contentStyleType="text/css"><?plantuml 1.2026.8?><defs/><g font-family="sans-serif" lengthAdjust="spacing"><rect x="10" y="15" width="797.634" height="459.633" fill="#FFF" style="stroke:#181818;stroke-width:1.5;"/><path d="M230.902,15 L230.902,24.099 L220.902,34.099 L10,34.099" style="stroke:#181818;stroke-width:1.5;" fill="none"/><text x="13" y="29.132" fill="#000" font-size="14" textLength="210.902" font-family="Arial">sd Atualizar status da candidatura</text><g><title>Empresa</title><rect x="41.508" y="119.748" width="8" height="337.787" fill="#000" fill-opacity="0"/><line x1="45.008" y1="119.748" x2="45.008" y2="457.535" style="stroke:#000;stroke-width:0.5;stroke-dasharray:5,5;"/></g><g><title>.TelaCandidaturas</title><rect x="239.583" y="119.748" width="8" height="337.787" fill="#000" fill-opacity="0"/><line x1="243.083" y1="119.748" x2="243.083" y2="457.535" style="stroke:#000;stroke-width:0.5;stroke-dasharray:5,5;"/></g><g><title></title><rect x="238.083" y="146.396" width="10" height="133.245" fill="#FFF" style="stroke:#181818;stroke-width:1;"/></g><g><title></title><rect x="238.083" y="306.29" width="10" height="133.245" fill="#FFF" style="stroke:#181818;stroke-width:1;"/></g><g><title>.EmpresaController</title><rect x="456.328" y="119.748" width="8" height="337.787" fill="#000" fill-opacity="0"/><line x1="459.828" y1="119.748" x2="459.828" y2="457.535" style="stroke:#000;stroke-width:0.5;stroke-dasharray:5,5;"/></g><g><title></title><rect x="454.828" y="173.045" width="10" height="79.947" fill="#FFF" style="stroke:#181818;stroke-width:1;"/></g><g><title></title><rect x="454.828" y="332.939" width="10" height="79.947" fill="#FFF" style="stroke:#181818;stroke-width:1;"/></g><g><title>.CandidaturaDAO</title><rect x="746.722" y="119.748" width="8" height="337.787" fill="#000" fill-opacity="0"/><line x1="750.222" y1="119.748" x2="750.222" y2="457.535" style="stroke:#000;stroke-width:0.5;stroke-dasharray:5,5;"/></g><g><title></title><rect x="745.222" y="199.694" width="10" height="26.649" fill="#FFF" style="stroke:#181818;stroke-width:1;"/></g><g><title></title><rect x="745.222" y="359.588" width="10" height="26.649" fill="#FFF" style="stroke:#181818;stroke-width:1;"/></g><text x="20" y="117.417" fill="#000" font-size="11" textLength="44.016" font-family="Arial">Empresa</text><ellipse cx="45.008" cy="55.599" rx="8" ry="8" fill="#FFF" style="stroke:#000;stroke-width:0.5;"/><path d="M45.008,63.599 L45.008,90.599 M32.008,71.599 L58.008,71.599 M45.008,90.599 L32.008,105.599 M45.008,90.599 L58.008,105.599" style="stroke:#000;stroke-width:0.5;" fill="none"/><text x="195.141" y="117.417" fill="#000" font-size="11" textLength="89.885" font-family="Arial">:TelaCandidaturas</text><path d="M222.583,79.099 L222.583,103.099 M222.583,91.099 L239.583,91.099" style="stroke:#000;stroke-width:0.5;" fill="none"/><ellipse cx="251.583" cy="91.099" rx="12" ry="12" fill="#FFFFE0" style="stroke:#000;stroke-width:0.5;"/><text x="409.45" y="117.417" fill="#000" font-size="11" textLength="94.757" font-family="Arial">:EmpresaController</text><ellipse cx="459.828" cy="91.099" rx="12" ry="12" fill="#FFFFE0" style="stroke:#000;stroke-width:0.5;"/><polygon points="455.828,79.099,461.828,74.099,459.828,79.099,461.828,84.099,455.828,79.099" fill="#000" style="stroke:#000;stroke-width:1;stroke-linejoin:miter;stroke-miterlimit:10;"/><text x="703.81" y="117.417" fill="#000" font-size="11" textLength="86.824" font-family="Arial">:CandidaturaDAO</text><ellipse cx="750.222" cy="91.099" rx="12" ry="12" fill="#FFFFE0" style="stroke:#000;stroke-width:0.5;"/><line x1="738.222" y1="105.099" x2="762.222" y2="105.099" style="stroke:#000;stroke-width:0.5;"/><polygon points="226.083,142.396,236.083,146.396,226.083,150.396,230.083,146.396" fill="#000" style="stroke:#000;stroke-width:1;stroke-linejoin:miter;stroke-miterlimit:10;"/><line x1="45.008" y1="146.396" x2="232.083" y2="146.396" style="stroke:#000;stroke-width:0.8;"/><text x="52.008" y="142.065" fill="#000" font-size="11" textLength="9.174" font-family="Arial">1:</text><text x="65.182" y="142.065" fill="#000" font-size="11" textLength="104.559" font-family="Arial">acessar candidaturas</text><polygon points="442.828,169.045,452.828,173.045,442.828,177.045,446.828,173.045" fill="#000" style="stroke:#000;stroke-width:1;stroke-linejoin:miter;stroke-miterlimit:10;"/><line x1="248.083" y1="173.045" x2="448.828" y2="173.045" style="stroke:#000;stroke-width:0.8;"/><text x="255.083" y="168.714" fill="#000" font-size="11" textLength="9.174" font-family="Arial">2:</text><text x="268.257" y="168.714" fill="#000" font-size="11" textLength="129.626" font-family="Arial">candidaturas(vaga, status)</text><polygon points="733.222,195.694,743.222,199.694,733.222,203.694,737.222,199.694" fill="#000" style="stroke:#000;stroke-width:1;stroke-linejoin:miter;stroke-miterlimit:10;"/><line x1="464.828" y1="199.694" x2="739.222" y2="199.694" style="stroke:#000;stroke-width:0.8;"/><text x="471.828" y="195.363" fill="#000" font-size="11" textLength="9.174" font-family="Arial">3:</text><text x="485.002" y="195.363" fill="#000" font-size="11" textLength="190.126" font-family="Arial">listarPorEmpresa(perfilId, vaga, status)</text><polygon points="475.828,222.343,465.828,226.343,475.828,230.343,471.828,226.343" fill="#000" style="stroke:#000;stroke-width:1;stroke-linejoin:miter;stroke-miterlimit:10;"/><line x1="469.828" y1="226.343" x2="744.222" y2="226.343" style="stroke:#000;stroke-width:0.8;stroke-dasharray:2,2;"/><text x="481.828" y="222.012" fill="#000" font-size="11" textLength="9.174" font-family="Arial">4:</text><text x="495.002" y="222.012" fill="#000" font-size="11" textLength="163.206" font-family="Arial">lista (VIP e maior match primeiro)</text><polygon points="259.083,248.992,249.083,252.992,259.083,256.992,255.083,252.992" fill="#000" style="stroke:#000;stroke-width:1;stroke-linejoin:miter;stroke-miterlimit:10;"/><line x1="253.083" y1="252.992" x2="453.828" y2="252.992" style="stroke:#000;stroke-width:0.8;stroke-dasharray:2,2;"/><text x="265.083" y="248.661" fill="#000" font-size="11" textLength="9.174" font-family="Arial">5:</text><text x="278.257" y="248.661" fill="#000" font-size="11" textLength="45.251" font-family="Arial">resultado</text><polygon points="56.008,275.641,46.008,279.641,56.008,283.641,52.008,279.641" fill="#000" style="stroke:#000;stroke-width:1;stroke-linejoin:miter;stroke-miterlimit:10;"/><line x1="50.008" y1="279.641" x2="237.083" y2="279.641" style="stroke:#000;stroke-width:0.8;stroke-dasharray:2,2;"/><text x="62.008" y="275.31" fill="#000" font-size="11" textLength="9.174" font-family="Arial">6:</text><text x="75.182" y="275.31" fill="#000" font-size="11" textLength="92.329" font-family="Arial">exibir candidaturas</text><polygon points="226.083,302.29,236.083,306.29,226.083,310.29,230.083,306.29" fill="#000" style="stroke:#000;stroke-width:1;stroke-linejoin:miter;stroke-miterlimit:10;"/><line x1="45.008" y1="306.29" x2="232.083" y2="306.29" style="stroke:#000;stroke-width:0.8;"/><text x="52.008" y="301.959" fill="#000" font-size="11" textLength="9.174" font-family="Arial">7:</text><text x="65.182" y="301.959" fill="#000" font-size="11" textLength="155.901" font-family="Arial">mudar status e escrever retorno</text><polygon points="442.828,328.939,452.828,332.939,442.828,336.939,446.828,332.939" fill="#000" style="stroke:#000;stroke-width:1;stroke-linejoin:miter;stroke-miterlimit:10;"/><line x1="248.083" y1="332.939" x2="448.828" y2="332.939" style="stroke:#000;stroke-width:0.8;"/><text x="255.083" y="328.608" fill="#000" font-size="11" textLength="9.174" font-family="Arial">8:</text><text x="268.257" y="328.608" fill="#000" font-size="11" textLength="174.571" font-family="Arial">candidaturas(acao = status, id, obs)</text><polygon points="733.222,355.588,743.222,359.588,733.222,363.588,737.222,359.588" fill="#000" style="stroke:#000;stroke-width:1;stroke-linejoin:miter;stroke-miterlimit:10;"/><line x1="464.828" y1="359.588" x2="739.222" y2="359.588" style="stroke:#000;stroke-width:0.8;"/><text x="471.828" y="355.257" fill="#000" font-size="11" textLength="9.174" font-family="Arial">9:</text><text x="485.002" y="355.257" fill="#000" font-size="11" textLength="248.22" font-family="Arial">atualizarStatusPorEmpresa(id, perfilId, status, obs)</text><polygon points="475.828,382.237,465.828,386.237,475.828,390.237,471.828,386.237" fill="#000" style="stroke:#000;stroke-width:1;stroke-linejoin:miter;stroke-miterlimit:10;"/><line x1="469.828" y1="386.237" x2="744.222" y2="386.237" style="stroke:#000;stroke-width:0.8;stroke-dasharray:2,2;"/><text x="481.828" y="381.906" fill="#000" font-size="11" textLength="15.292" font-family="Arial">10:</text><text x="501.12" y="381.906" fill="#000" font-size="11" textLength="18.955" font-family="Arial">true</text><polygon points="259.083,408.886,249.083,412.886,259.083,416.886,255.083,412.886" fill="#000" style="stroke:#000;stroke-width:1;stroke-linejoin:miter;stroke-miterlimit:10;"/><line x1="253.083" y1="412.886" x2="453.828" y2="412.886" style="stroke:#000;stroke-width:0.8;stroke-dasharray:2,2;"/><text x="265.083" y="408.555" fill="#000" font-size="11" textLength="15.292" font-family="Arial">11:</text><text x="284.375" y="408.555" fill="#000" font-size="11" textLength="124.002" font-family="Arial">"Candidatura atualizada."</text><polygon points="56.008,435.535,46.008,439.535,56.008,443.535,52.008,439.535" fill="#000" style="stroke:#000;stroke-width:1;stroke-linejoin:miter;stroke-miterlimit:10;"/><line x1="50.008" y1="439.535" x2="237.083" y2="439.535" style="stroke:#000;stroke-width:0.8;stroke-dasharray:2,2;"/><text x="62.008" y="435.204" fill="#000" font-size="11" textLength="15.292" font-family="Arial">12:</text><text x="81.3" y="435.204" fill="#000" font-size="11" textLength="83.757" font-family="Arial">exibir mensagem</text><?plantuml-src TLBBRi8m4BpxAxOvKK5GpqYjX98SE1MfKU-RU05BVg2rZMY_leu39Q3swFNCU6RMJyhsEae2ya5fjrJHQ65GsHsZ8V0IrY6YLj_8u0E6w44Yz6Ybakd4A306PwFfYA5uMHNYe9BQphdGkRCGs0V7q9WZaqT03uteNBGI-GkALKiQgvkMBmP4Atfd0pkT01TYDGuqSKPKWcnGOL2OiElrUxwjHGFb6xGmdyCAi2Vla_c9PI_Q0L2DWEd5x8HxN5o2FejgWDKZJAiqvQtZYwNPaNYdz4Oku9vKGvd5o_BAWjddPWi4gTRKXS7G7-38of1Ybn_9RZC-AKSTKBh1OXetuvZEgbCF6QOXJPIt_Goxx9bEQI5CgNth_i-BFJfulJ0Ne58Qrpqan-i7-CYeIGK3_5R3LIGBtBKGED9zpcAojzy792wBFtCRiXxtP7u0?></g></svg>