<svg xmlns="http://www.w3.org/2000/svg" width="484" height="342" viewBox="0 0 484 342"><rect x="0" y="0" width="484" height="342" fill="#fff"/><rect x="4" y="4" width="476" height="334" fill="none" stroke="#000" stroke-width="1"/><polygon points="4,4 151,4 151,16 143,24 4,24" fill="#fff" stroke="#000" stroke-width="1"/><text x="10" y="18" font-family="Arial, Helvetica, sans-serif" font-size="11" text-anchor="start">uc Manter categoria</text><rect x="185" y="41" width="229" height="271" fill="#fff" stroke="#000" stroke-width="1"/><text x="299.7" y="61" font-family="Arial, Helvetica, sans-serif" font-size="11" text-anchor="middle">Sistema Conecta Vagas DF</text><line x1="74" y1="184" x2="215" y2="100" stroke="#000" stroke-width="1"/><line x1="74" y1="184" x2="215" y2="156" stroke="#000" stroke-width="1"/><line x1="74" y1="184" x2="215" y2="212" stroke="#000" stroke-width="1"/><line x1="74" y1="184" x2="215" y2="268" stroke="#000" stroke-width="1"/><ellipse cx="299.7" cy="100" rx="84.7" ry="19" fill="#FFFFE0" stroke="#000" stroke-width="1"/><text x="299.7" y="104" font-family="Arial, Helvetica, sans-serif" font-size="11" text-anchor="middle">Cadastrar categoria</text><ellipse cx="289" cy="156" rx="74" ry="19" fill="#FFFFE0" stroke="#000" stroke-width="1"/><text x="289" y="160" font-family="Arial, Helvetica, sans-serif" font-size="11" text-anchor="middle">Alterar categoria</text><ellipse cx="296.3" cy="212" rx="81.3" ry="23" fill="#FFFFE0" stroke="#000" stroke-width="1"/><text x="296.3" y="209.5" font-family="Arial, Helvetica, sans-serif" font-size="11" text-anchor="middle">Ativar ou desativar</text><text x="296.3" y="222.5" font-family="Arial, Helvetica, sans-serif" font-size="11" text-anchor="middle">categoria</text><ellipse cx="289" cy="268" rx="74" ry="19" fill="#FFFFE0" stroke="#000" stroke-width="1"/><text x="289" y="272" font-family="Arial, Helvetica, sans-serif" font-size="11" text-anchor="middle">Excluir categoria</text><g stroke="#000" stroke-width="1" fill="none"><circle cx="60" cy="168" r="8" fill="#fff"/><line x1="60" y1="176" x2="60" y2="198"/><line x1="47" y1="183" x2="73" y2="183"/><line x1="60" y1="198" x2="50" y2="216"/><line x1="60" y1="198" x2="70" y2="216"/></g><text x="60" y="234" font-family="Arial, Helvetica, sans-serif" font-size="11" text-anchor="middle">Administrador</text></svg>