<svg xmlns="http://www.w3.org/2000/svg" width="522" height="398" viewBox="0 0 522 398"><rect x="0" y="0" width="522" height="398" fill="#fff"/><rect x="4" y="4" width="514" height="390" fill="none" stroke="#000" stroke-width="1"/><polygon points="4,4 187,4 187,16 179,24 4,24" fill="#fff" stroke="#000" stroke-width="1"/><text x="10" y="18" font-family="Arial, Helvetica, sans-serif" font-size="11" text-anchor="start">uc Gerenciar assinaturas</text><rect x="195" y="37" width="257" height="331" fill="#fff" stroke="#000" stroke-width="1"/><text x="323.7" y="57" font-family="Arial, Helvetica, sans-serif" font-size="11" text-anchor="middle">Sistema Conecta Vagas DF</text><line x1="74" y1="212" x2="225" y2="100" stroke="#000" stroke-width="1"/><line x1="74" y1="212" x2="225" y2="156" stroke="#000" stroke-width="1"/><line x1="74" y1="212" x2="225" y2="212" stroke="#000" stroke-width="1"/><line x1="74" y1="212" x2="225" y2="268" stroke="#000" stroke-width="1"/><line x1="74" y1="212" x2="225" y2="324" stroke="#000" stroke-width="1"/><ellipse cx="316.3" cy="100" rx="91.3" ry="23" fill="#FFFFE0" stroke="#000" stroke-width="1"/><text x="316.3" y="97.5" font-family="Arial, Helvetica, sans-serif" font-size="11" text-anchor="middle">Consultar assinaturas</text><text x="316.3" y="110.5" font-family="Arial, Helvetica, sans-serif" font-size="11" text-anchor="middle">(filtros e ordenação)</text><ellipse cx="313" cy="156" rx="88" ry="19" fill="#FFFFE0" stroke="#000" stroke-width="1"/><text x="313" y="160" font-family="Arial, Helvetica, sans-serif" font-size="11" text-anchor="middle">Conceder assinatura</text><ellipse cx="323.7" cy="212" rx="98.7" ry="23" fill="#FFFFE0" stroke="#000" stroke-width="1"/><text x="323.7" y="209.5" font-family="Arial, Helvetica, sans-serif" font-size="11" text-anchor="middle">Alterar assinatura</text><text x="323.7" y="222.5" font-family="Arial, Helvetica, sans-serif" font-size="11" text-anchor="middle">(valor, datas e situação)</text><ellipse cx="310.3" cy="268" rx="85.3" ry="19" fill="#FFFFE0" stroke="#000" stroke-width="1"/><text x="310.3" y="272" font-family="Arial, Helvetica, sans-serif" font-size="11" text-anchor="middle">Cancelar assinatura</text><ellipse cx="303" cy="324" rx="78" ry="19" fill="#FFFFE0" stroke="#000" stroke-width="1"/><text x="303" y="328" font-family="Arial, Helvetica, sans-serif" font-size="11" text-anchor="middle">Excluir assinatura</text><g stroke="#000" stroke-width="1" fill="none"><circle cx="60" cy="196" r="8" fill="#fff"/><line x1="60" y1="204" x2="60" y2="226"/><line x1="47" y1="211" x2="73" y2="211"/><line x1="60" y1="226" x2="50" y2="244"/><line x1="60" y1="226" x2="70" y2="244"/></g><text x="60" y="262" font-family="Arial, Helvetica, sans-serif" font-size="11" text-anchor="middle">Administrador</text></svg>